<svg width="512" height="512" xmlns="http://www.w3.org/2000/svg">

 <title/>
 <g>
  <title>Layer 1</title>
  <path id="svg_1" fill="#fff" d="m136,454.5l240,0l0,0l0,30a20,20 0 0 1 -20,20l-200,0a20,20 0 0 1 -20,-20l0,-30l0,0z" class="cls-1"/>
  <path id="svg_2" fill="#2A278F" d="m356,512l-200,0a27.54,27.54 0 0 1 -27.5,-27.5l0,-30a7.5,7.5 0 0 1 7.5,-7.5l240,0a7.5,7.5 0 0 1 7.5,7.5l0,30a27.54,27.54 0 0 1 -27.5,27.5zm-212.5,-50l0,22.5a12.52,12.52 0 0 0 12.5,12.5l200,0a12.52,12.52 0 0 0 12.5,-12.5l0,-22.5l-225,0z" class="cls-2"/>
  <polygon id="svg_3" fill="#9E9BF5" points="376 454.5 136 454.5 101 127.5 411 127.5 376 454.5" class="cls-3"/>
  <path id="svg_4" fill="#2A278F" d="m376,462l-240,0a7.51,7.51 0 0 1 -7.46001,-6.70001l-34.99999,-326.99998a7.51,7.51 0 0 1 7.46,-8.3l310,0a7.51,7.51 0 0 1 7.45999,8.3l-35,326.99998a7.51,7.51 0 0 1 -7.45999,6.70001zm-233.25999,-15l226.52,0l33.39001,-312l-293.30003,0l33.39001,312z" class="cls-2"/>
  <rect id="svg_5" fill="#9E9BF5" y="67.5" x="81" width="350" height="60" class="cls-3"/>
  <path id="svg_6" fill="#2A278F" d="m431,135l-350,0a7.5,7.5 0 0 1 -7.5,-7.5l0,-60a7.5,7.5 0 0 1 7.5,-7.5l350,0a7.5,7.5 0 0 1 7.5,7.5l0,60a7.5,7.5 0 0 1 -7.5,7.5zm-342.5,-15l335,0l0,-45l-335,0l0,45z" class="cls-2"/>
  <path id="svg_7" fill="#fff" d="m386,67.5l-260,0l24.47,-48.94a20,20 0 0 1 17.89,-11.06l175.28001,0a20,20 0 0 1 17.88998,11.06l24.47,48.94z" class="cls-1"/>
  <path id="svg_8" fill="#2A278F" d="m386,76l-260,0a7.5,7.5 0 0 1 -6.71,-10.85l24.46999,-48.95a27.35,27.35 0 0 1 24.60001,-15.2l175.28001,0a27.35,27.35 0 0 1 24.60001,15.2l24.47,49a7.5,7.5 0 0 1 -6.71002,10.8zm-247.87,-15l235.73999,0l-19.04999,-38.09a12.44,12.44 0 0 0 -11.17999,-6.91l-175.28001,0a12.44,12.44 0 0 0 -11.18001,6.91l-19.04999,38.09z" class="cls-2"/>
  <circle id="svg_9" fill="#fff" r="95" cy="291" cx="256" class="cls-1"/>
  <path id="svg_10" fill="#2A278F" d="m256,393.5a102.5,102.5 0 1 1 102.5,-102.5a102.61,102.61 0 0 1 -102.5,102.5zm0,-190a87.5,87.5 0 1 0 87.5,87.5a87.6,87.6 0 0 0 -87.5,-87.5z" class="cls-2"/>
  <ellipse id="svg_11" fill="#9E9BF5" transform="rotate(-70 -105.01 432.03)" ry="40" rx="50" cy="723.03" cx="150.99" class="cls-3"/>
  <path id="svg_12" fill="#2A278F" d="m250.17,347.47a40.32,40.32 0 0 1 -13.84,-2.47c-24.61,-9 -35.81,-40.48001 -25,-70.28c5.14999,-14.14001 14.47,-25.88 26.25,-33.05c12.31999,-7.5 25.83,-9.17999 38.06001,-4.73c24.60999,9 35.81,40.48001 25,70.28l0,0c-5.15002,14.13998 -14.47,25.88 -26.25,33.04999a46.61,46.61 0 0 1 -24.22002,7.20001zm11.71001,-97.92a31.74,31.74 0 0 0 -16.47,5c-8.88,5.40999 -16,14.42 -19.95,25.37001c-8,22 -0.83,44.92999 16,51.06c7.86,2.85999 16.77998,1.63 25.12999,-3.45001c8.88,-5.41 16,-14.41998 20,-25.37l0,0c8,-22 0.84,-44.92999 -16,-51.06a25.26,25.26 0 0 0 -8.70999,-1.55z" class="cls-2"/>
 </g>
</svg>